<svg version="1.1" xmlns="http://www.w3.org/2000/svg" viewBox="0 0 480 230" width="1440" height="690"><!-- svg-source:excalidraw --><metadata><!-- payload-type:application/vnd.excalidraw+json --><!-- payload-version:2 --><!-- payload-start -->eyJ2ZXJzaW9uIjoiMSIsImVuY29kaW5nIjoiYnN0cmluZyIsImNvbXByZXNzZWQiOnRydWUsImVuY29kZWQiOiJ4nO2Su27CMFx1MDAxNIZ3nlwiclckcFBcYmHsZWBoXHUwMDE3hlx1MDAwZVVcdTAwMDc3PiFcdTAwMTauXHUwMDFk2eZWxLv32FBcdTAwMWNcIip1a4eCXHUwMDE0yf+5/MfH376XJMTtXHUwMDFhINOEwLZkUnDDNqTv9TVcdTAwMTgrtMJQXHUwMDFhzlavTFx1MDAxOTJr55rpYCA1XHUwMDE21Nq6aUbzybFcYiS8g3JcdTAwMTbTXvCcJPvwxYjgvtTQkFx1MDAxN5QvY1x1MDAwM6VjaiEhhraoXHUwMDBmz6fdxWkjuKv9VMOo1SBcdTAwMTa1Q5FmUTz2bJdaZ/RcdTAwMTLutNTGXHUwMDFi31Dw/2j7xsrlwuiV4jGHZXxSVTGnXHUwMDEyUs7dLnTGneDGSKf/89eAXHUwMDFk/bsqNFxc1FxurL2YVTesXHUwMDE0zl+dti7qp2tmPOz3Nc5k2DvM/ILVSsp2Y8VPjS9cdTAwMDJcdTAwMTbAJ9Oz0HnrtvakVXh1Os7SYT4p0uycIew9vrdcdTAwMGK9KiYtxEV654dcdTAwMTZcdTAwMGJx1lXD2bFcdTAwMDShKfJROlx1MDAxYY3yvDjHpVDL7rxI2vKKi1BcdTAwMWM8KYRccknQXHUwMDBl/avMpT9mLlx1MDAxZF9SN/417Kpcbsqi+MduXFx47mjxXHUwMDE3qaMn6vBcdTAwMWKcXGJrmrlDXHUwMDFmjFx1MDAxZVx1MDAxOcTFXHQ+XHUwMDE3XHUwMDFmXHUwMDEwwOm3NFx1MDAwN1xyallLetRcdTAwMWNcdTAwMWVcdTAwMTR7k11Pslx1MDAxNrC5vcqI//khXHUwMDAy+J5cdTAwMTHw995cdTAwMWZ6h0/2Vns/In0=<!-- payload-end --></metadata><defs><style class="style-fonts">
      </style></defs><rect x="0" y="0" width="480" height="230" fill="#ffffff"/><g stroke-linecap="round" transform="translate(10 10) rotate(0 100 75)"><path d="M0 0 L200 0 L200 150 L0 150" stroke="none" stroke-width="0" fill="#a5d8ff"/><path d="M0 0 C40 0, 80 0, 200 0 M0 0 C54.4 0, 108.8 0, 200 0 M200 0 C200 35.27, 200 70.54, 200 150 M200 0 C200 56.29, 200 112.58, 200 150 M200 150 C127.7 150, 55.39 150, 0 150 M200 150 C151.82 150, 103.64 150, 0 150 M0 150 C0 98.9, 0 47.79, 0 0 M0 150 C0 97.27, 0 44.54, 0 0" stroke="#1e1e1e" stroke-width="2" fill="none"/></g><g stroke-linecap="round" transform="translate(270 70) rotate(0 100 75)"><path d="M0 0 L200 0 L200 150 L0 150" stroke="none" stroke-width="0" fill="#ffec99"/><path d="M0 0 C40 0, 80 0, 200 0 M0 0 C54.4 0, 108.8 0, 200 0 M200 0 C200 35.27, 200 70.54, 200 150 M200 0 C200 56.29, 200 112.58, 200 150 M200 150 C127.7 150, 55.39 150, 0 150 M200 150 C151.82 150, 103.64 150, 0 150 M0 150 C0 98.9, 0 47.79, 0 0 M0 150 C0 97.27, 0 44.54, 0 0" stroke="#1e1e1e" stroke-width="2" fill="none"/></g></svg>